<!DOCTYPE svg PUBLIC "-//W3C//DTD SVG 1.1//EN" "http://www.w3.org/Graphics/SVG/1.1/DTD/svg11.dtd">

<!-- Uploaded to: SVG Repo, www.svgrepo.com, Transformed by: SVG Repo Mixer Tools -->
<svg fill="#b18ee8" width="35px" height="35px" viewBox="-3.52 -3.52 23.04 23.04" xmlns="http://www.w3.org/2000/svg" stroke="#b18ee8" stroke-width="0.00016">

<g id="SVGRepo_bgCarrier" stroke-width="0"/>

<g id="SVGRepo_tracerCarrier" stroke-linecap="round" stroke-linejoin="round"/>

<g id="SVGRepo_iconCarrier">

<path d="M6.53 9.02 4.58 7.07l-.88.89 2.83 2.83.88-.89 4.78-4.77-.89-.88-4.77 4.77z"/>

<path d="M8 .5A7.77 7.77 0 0 0 0 8a7.77 7.77 0 0 0 8 7.5A7.77 7.77 0 0 0 16 8 7.77 7.77 0 0 0 8 .5zm0 13.75A6.52 6.52 0 0 1 1.25 8 6.52 6.52 0 0 1 8 1.75 6.52 6.52 0 0 1 14.75 8 6.52 6.52 0 0 1 8 14.25z"/>

</g>

</svg>
